<svg xmlns="http://www.w3.org/2000/svg" viewBox="0 0 1024 768"><title>wcbdx_2019_blanc</title><g id="Logo_final_-_blanc" data-name="Logo final - blanc"><path d="M466.5,596.79c-.05,7.51-6.29,11.65-13.55,15.33a21.93,21.93,0,0,1-3.23,1.34v.11c1.64-.1,3.34-.26,5.2-.25l12.6.09,0,4.69-26-.18,0-4.63c12.13-5.68,19-9.25,19-16.49,0-4.74-3.3-6.29-6.63-6.31-4.46,0-7.76,3.28-7.29,8.54L441.3,597c0-6.39,4.42-11.22,12.67-11.16C462.05,585.85,466.55,589.89,466.5,596.79Z" style="fill:#fff"/><path d="M502.79,602.8c-.07,10.74-4.85,16.36-13.89,16.3s-13.75-5.75-13.68-16.48,4.85-16.36,13.89-16.3S502.86,592.06,502.79,602.8Zm-21.58-.14c0,7.8,2.58,11.71,7.72,11.75s7.82-3.85,7.87-11.65-2.58-11.71-7.72-11.75S481.26,594.86,481.21,602.66Z" style="fill:#fff"/><path d="M538.09,613.18l0,4.92-26.5-.18,0-4.91,11,.07.11-16.44c0-1.19.07-2.6.19-4.13a22,22,0,0,1-10.09,5.19l-1-4.81c3-.37,9.86-3.72,11.91-6.53l4.91,0-.17,26.73Z" style="fill:#fff"/><path d="M570.63,605.13c-.08,11.58-5.33,19.12-14.82,19.06-6.84-.05-11-2.73-13.17-8.62l5.39-2.4c.76,3.85,2.78,6.29,7.81,6.33,5.76,0,9.3-5.25,9.36-14,0-.63,0-1.25,0-2.15H565c-1,4.57-5.19,6.63-9.94,6.6-7.4,0-12.39-4.77-12.35-12.17s5.23-12.12,13.36-12.06C565.5,585.83,570.7,593.38,570.63,605.13Zm-22.16-7.21c0,4.58,2.66,7.36,7.46,7.4a7,7,0,0,0,7.4-7.3c0-4.47-2.89-7.42-7.3-7.45C551.23,590.54,548.5,593.23,548.47,597.92Z" style="fill:#fff"/><path d="M425,586l-10.28,3.44c-12.22,4.08-20.85,13-14.94,22.75,4,6.63,14,9.14,20.46,2.71C426,609.1,425,586,425,586" style="fill:#fff"/><path d="M364.87,528.33l17.07.09c7.85.1,11.56,3.05,11.54,8.59,0,3.62-2.24,6.38-6.54,7.15v.16c5,.54,7.33,3.43,7.31,7.33,0,5.48-4,8.46-11.74,8.42l-17.8-.09Zm15.69,25.51c2.66,0,4.19-1.05,4.2-3.31s-1.51-3.4-4.16-3.41l-6.78,0,0,6.73Zm-.89-12.6c2.93,0,4.3-1,4.31-3.26s-1.34-3.34-4.28-3.36l-5.82,0,0,6.62Z" style="fill:#fff"/><path d="M432.36,543.88c-.05,10.17-6.35,16.24-16.63,16.19s-16.47-6.19-16.42-16.36,6.3-16.24,16.58-16.19S432.42,533.71,432.36,543.88Zm-23.44-.12c0,6,2.38,8.94,6.84,9s7-2.85,7-8.89-2.38-8.94-6.9-9S409,537.71,408.92,543.76Z" style="fill:#fff"/><path d="M453.5,549l-4.91,0-.06,11-9.43-.05.16-31.64,16,.08c8.14,0,13,3.8,12.95,10.41a9.31,9.31,0,0,1-6.38,9.23l7.79,12.08L459.38,560Zm-4.88-6,5.42,0c3.22,0,4.81-1.33,4.83-4.1s-1.56-4.07-4.79-4.09l-5.42,0Z" style="fill:#fff"/><path d="M506.08,544.33c-.05,10.06-6.07,15.79-16.69,15.74L475.2,560l.17-31.64,14.18.08C500.17,528.48,506.13,534.27,506.08,544.33Zm-9.66-.05c0-5.65-2.11-8.65-6.91-8.68l-4.74,0-.09,17.29,4.74,0C494.23,552.92,496.39,549.93,496.42,544.28Z" style="fill:#fff"/><path d="M540.12,553.34l0,6.73L513,559.93l.16-31.64,26.78.13,0,6.73-17.35-.09,0,5.76,13.5.07,0,6.44-13.5-.07,0,6Z" style="fill:#fff"/><path d="M567.56,553.45l-11.7-.06-2.29,6.55-9.1-.05,11.81-31.58,11.47.06,11.47,31.7-9.49-.05ZM565.39,547l-.67-2-2.83-9.68h-.17L558.79,545l-.69,2Z" style="fill:#fff"/><path d="M613.05,546.47c0,8.93-5,13.65-15.26,13.6s-15.18-4.83-15.13-13.75l.09-18.42,9.61,0-.1,18.65c0,4.18,1.78,6.11,5.56,6.13s5.66-1.89,5.68-6.07l.1-18.65,9.55,0Z" style="fill:#fff"/><path d="M639.88,560l-6-9.69-6,9.63-10-.05L629.34,544l-11-15.76,11,0,5.77,9.3,5.81-9.24,9.83,0-11.21,15.43,11.27,16.22Z" style="fill:#fff"/><path d="M382.33,486,377,505.12l-5.65,0-9.54-31.68,4.69,0,5.4,19.17,2.46,8.66,7.74-27.77,5.08,0,7.57,27.88,8.08-27.82,4.47,0-9.74,31.6-5.59,0L386.63,486l-2.11-8.59h-.06Z" style="fill:#fff"/><path d="M441.76,489c0,10.06-6.06,16.25-15.66,16.21s-15.57-6.28-15.53-16.33,6.05-16.25,15.66-16.21S441.8,478.93,441.76,489Zm-26.67-.11c0,7.8,4.24,12.4,11,12.42s11.1-4.53,11.13-12.33-4.25-12.39-11-12.42S415.12,481.09,415.09,488.88Z" style="fill:#fff"/><path d="M461.8,492.26l-8,0-.06,12.88h-4.52l.13-31.65,13.17.06c6.95,0,11.4,3.6,11.37,9.42,0,4.58-2.74,7.73-7.27,8.84l9.1,13.43-5.19,0Zm-7.95-3.87,8.53,0c4.69,0,7-1.78,7-5.45s-2.29-5.55-7-5.57l-8.53,0Z" style="fill:#fff"/><path d="M510.07,489.39c-.05,10.23-6.17,15.85-16.68,15.81l-11.3,0,.13-31.64,11.3,0C504,473.6,510.11,479.28,510.07,489.39Zm-4.53,0c0-7.57-4.18-11.88-11.7-11.91l-7.12,0-.1,23.85,7.12,0C501.26,501.34,505.51,497,505.54,489.37Z" style="fill:#fff"/><path d="M531,505.2c-9.15,0-15.29-6.27-15.25-16.33s6.17-16.25,15.55-16.21c6.72,0,11.46,2.93,13.19,8.64l-4.3,1.9c-1.12-4.52-3.76-6.62-9-6.64-6.44,0-10.87,4.53-10.9,12.32s4.47,12.4,10.58,12.42c5.87,0,8.93-2.11,9.8-6.51l4.34,1.48C543.4,502.2,538,505.23,531,505.2Z" style="fill:#fff"/><path d="M570,496.53l-14.64-.06-3.47,8.63-4.75,0,13-31.59,5.37,0,12.7,31.69-4.75,0Zm-1.51-3.91-4.31-10.92-1.39-4.19h-.06l-1.43,4.17-4.39,10.89Z" style="fill:#fff"/><path d="M583.74,473.43l6.78,0,7.61,20.65,2,6.17h.16l2.06-6.16,7.77-20.59,6.72,0-.12,31.64-4.35,0,.07-18.36.43-9h-.11l-10.51,27.36h-4.18L587.8,477.68h-.12l.3,9-.07,18.37-4.29,0Z" style="fill:#fff"/><path d="M650.09,483.41c0,6-4.56,9.65-11.56,9.62l-7.74,0,0,12.2-4.52,0,.12-31.64,12.26,0C645.61,473.62,650.12,477.31,650.09,483.41Zm-4.52,0c0-3.84-2.35-5.88-6.93-5.9l-7.79,0-.05,11.64,7.8,0C643.18,489.15,645.56,487.18,645.57,483.39Z" style="fill:#fff"/><path id="W" d="M575.22,439.2m135.2-191M559.06,151.41m-181-15c-8.65.44-18.4.91-26.12.91-3.79,0-8.24-.15-13-.3h0l-25.9-.35,10.19,29-.09.16,96.56,264.56,38-57.82Z" style="fill:#fff"/><path id="W-2" data-name="W" d="M575.22,439.2m135.2-191M511.55,266l62.22,170.47c.41,1,.92,1.86,1.27,2.87l34-68.36-78.9-234.54-.95.14c-8.58.43-17.74.77-25.38.77-11.33,0-27.05-.84-38.49-1.55l-1.2.64,6.32,16.94L502,239.74Z" style="fill:#fff"/><path d="M679,113.65c-6.91-11.06-19.21-20.3-44.43-18.72C616.41,97.72,604,113.2,604,129.71c0,16.36,8.58,27.77,21.32,46.55,16.77,24.72,35.42,64.9,35.42,64.9,17-28.7,24.65-55.09,27.88-75C691,151.65,689,129.65,679,113.65Z" style="fill:#fff"/></g></svg>