<svg xmlns="http://www.w3.org/2000/svg" viewBox="0 0 1024 768"><title>wcbdx_2019_horizontal</title><g id="Logo_final_-_Horizontal" data-name="Logo final - Horizontal"><g id="texte"><path d="M782.09,332.41c0,6-4.56,9.65-11.56,9.62l-7.74,0,0,12.2-4.52,0,.12-31.64,12.26,0C777.61,322.62,782.12,326.31,782.09,332.41Zm-4.52,0c0-3.84-2.35-5.88-6.93-5.9l-7.79,0-.05,11.64,7.8,0C775.18,338.15,777.56,336.18,777.57,332.39Z" style="fill:#5e574d"/><path d="M565.5,445.79c0,7.51-6.29,11.65-13.55,15.33a21.93,21.93,0,0,1-3.23,1.34v.11c1.64-.1,3.34-.26,5.2-.25l12.6.09,0,4.69-26-.18,0-4.63c12.13-5.68,19-9.25,19-16.49,0-4.74-3.3-6.29-6.63-6.31-4.46,0-7.76,3.28-7.29,8.54L540.3,446c0-6.39,4.42-11.22,12.67-11.16C561.05,434.85,565.55,438.89,565.5,445.79Z" style="fill:#9dad6f;stroke:#849456;stroke-miterlimit:10;stroke-width:0.25px"/><path d="M601.79,451.8c-.07,10.74-4.85,16.36-13.89,16.3s-13.75-5.75-13.68-16.48,4.85-16.36,13.89-16.3S601.86,441.06,601.79,451.8Zm-21.58-.14c-.05,7.8,2.58,11.71,7.72,11.75s7.82-3.85,7.87-11.65-2.58-11.71-7.72-11.75S580.26,443.86,580.21,451.66Z" style="fill:#9dad6f;stroke:#849456;stroke-miterlimit:10;stroke-width:0.25px"/><path d="M637.09,462.18l0,4.92-26.5-.18,0-4.91,11,.07.11-16.44c0-1.19.07-2.6.19-4.13a22,22,0,0,1-10.09,5.19l-1-4.81c3-.37,9.86-3.72,11.91-6.53l4.91,0-.17,26.73Z" style="fill:#9dad6f;stroke:#849456;stroke-miterlimit:10;stroke-width:0.25px"/><path d="M669.63,454.13c-.08,11.58-5.33,19.12-14.82,19.06-6.84-.05-11-2.73-13.17-8.62l5.39-2.4c.76,3.85,2.78,6.29,7.81,6.33,5.76,0,9.3-5.25,9.36-13.95,0-.63,0-1.25,0-2.15H664c-1,4.57-5.19,6.63-9.94,6.6-7.4-.05-12.39-4.77-12.35-12.17s5.23-12.12,13.36-12.06C664.5,434.83,669.7,442.38,669.63,454.13Zm-22.16-7.21c0,4.58,2.66,7.36,7.46,7.4a7,7,0,0,0,7.4-7.3c0-4.47-2.89-7.42-7.3-7.45C650.23,439.54,647.5,442.23,647.47,446.92Z" style="fill:#9dad6f;stroke:#849456;stroke-miterlimit:10;stroke-width:0.25px"/><path d="M496.87,377.33l17.07.09c7.85.1,11.56,3.05,11.54,8.59,0,3.62-2.24,6.38-6.54,7.15v.16c5,.54,7.33,3.43,7.31,7.33,0,5.48-4,8.46-11.74,8.42l-17.8-.09Zm15.69,25.51c2.66,0,4.19-1,4.2-3.31s-1.51-3.4-4.16-3.41l-6.78,0,0,6.73Zm-.89-12.6c2.93,0,4.3-1,4.31-3.26s-1.34-3.34-4.28-3.36l-5.82,0,0,6.62Z" style="fill:#5e574d"/><path d="M564.36,392.88c-.05,10.17-6.35,16.24-16.63,16.19s-16.47-6.19-16.42-16.36,6.3-16.24,16.58-16.19S564.42,382.71,564.36,392.88Zm-23.44-.12c0,6,2.38,8.94,6.84,9s7-2.85,7-8.89-2.38-8.94-6.9-9S541,386.71,540.92,392.76Z" style="fill:#5e574d"/><path d="M585.5,398l-4.91,0-.06,11-9.43,0,.16-31.64,16,.08c8.14,0,13,3.8,13,10.41a9.31,9.31,0,0,1-6.38,9.23l7.79,12.08L591.38,409Zm-4.88-6,5.42,0c3.22,0,4.81-1.33,4.83-4.1s-1.56-4.07-4.79-4.09l-5.42,0Z" style="fill:#5e574d"/><path d="M638.08,393.33c-.05,10.06-6.07,15.79-16.69,15.74L607.2,409l.17-31.64,14.18.08C632.17,377.48,638.13,383.27,638.08,393.33Zm-9.66-.05c0-5.65-2.11-8.65-6.91-8.68l-4.74,0-.09,17.29,4.74,0C626.23,401.92,628.39,398.93,628.42,393.28Z" style="fill:#5e574d"/><path d="M672.12,402.34l0,6.73L645,408.93l.16-31.64,26.78.13,0,6.73-17.35-.09,0,5.76,13.5.07,0,6.44-13.5-.07,0,6Z" style="fill:#5e574d"/><path d="M699.56,402.45l-11.7-.06-2.29,6.55-9.1-.05,11.81-31.58,11.47.06,11.47,31.7-9.49-.05ZM697.39,396l-.67-2-2.83-9.68h-.17L690.79,394l-.69,2Z" style="fill:#5e574d"/><path d="M745.05,395.47c0,8.93-5,13.65-15.26,13.6s-15.18-4.83-15.13-13.75l.09-18.42,9.61,0-.1,18.65c0,4.18,1.78,6.11,5.56,6.13s5.66-1.89,5.68-6.07l.1-18.65,9.55.05Z" style="fill:#5e574d"/><path d="M771.88,409l-6-9.69-6,9.63-10-.05L761.34,393l-11-15.76,11,.05,5.77,9.3,5.81-9.24,9.83.05-11.21,15.43,11.27,16.22Z" style="fill:#5e574d"/><path d="M514.33,335,509,354.12l-5.65,0-9.54-31.68,4.69,0,5.4,19.17,2.46,8.66,7.74-27.77,5.08,0,7.57,27.88,8.08-27.82,4.47,0-9.74,31.6-5.59,0L518.63,335l-2.11-8.59h-.06Z" style="fill:#5e574d"/><path d="M573.76,338c0,10.06-6.06,16.25-15.66,16.21s-15.57-6.28-15.53-16.33,6-16.25,15.66-16.21S573.8,327.93,573.76,338Zm-26.67-.11c0,7.8,4.24,12.4,11,12.42s11.1-4.53,11.13-12.33-4.25-12.39-11-12.42S547.12,330.09,547.09,337.88Z" style="fill:#5e574d"/><path d="M593.8,341.26l-8,0-.06,12.88h-4.52l.13-31.65,13.17.06c7,0,11.4,3.6,11.37,9.42,0,4.58-2.74,7.73-7.27,8.84l9.1,13.43-5.19,0Zm-7.95-3.87,8.53,0c4.69,0,7-1.78,7-5.45s-2.29-5.55-7-5.57l-8.53,0Z" style="fill:#5e574d"/><path d="M642.07,338.39c-.05,10.23-6.17,15.85-16.68,15.81l-11.3,0,.13-31.64,11.3,0C636,322.6,642.11,328.28,642.07,338.39Zm-4.53,0c0-7.57-4.18-11.88-11.7-11.91l-7.12,0-.1,23.85,7.12,0C633.26,350.34,637.51,346,637.54,338.37Z" style="fill:#5e574d"/><path d="M663,354.2c-9.15,0-15.29-6.27-15.25-16.33s6.17-16.25,15.55-16.21c6.72,0,11.46,2.93,13.19,8.64l-4.3,1.9c-1.12-4.52-3.76-6.62-9-6.64-6.44,0-10.87,4.53-10.9,12.32s4.47,12.4,10.58,12.42c5.87,0,8.93-2.11,9.8-6.51l4.34,1.48C675.4,351.2,670,354.23,663,354.2Z" style="fill:#5e574d"/><path d="M702,345.53l-14.64-.06-3.47,8.63-4.75,0,13-31.59,5.37,0,12.7,31.69-4.75,0Zm-1.51-3.91-4.31-10.92-1.39-4.19h-.06l-1.43,4.17-4.39,10.89Z" style="fill:#5e574d"/><path d="M715.74,322.43l6.78,0,7.61,20.65,2,6.17h.16l2.06-6.16,7.77-20.59,6.72,0-.12,31.64-4.35,0,.07-18.36.43-9h-.11l-10.51,27.36h-4.18L719.8,326.68h-.12l.3,9-.07,18.37-4.29,0Z" style="fill:#5e574d"/><path d="M524,435l-10.28,3.44c-12.22,4.08-20.85,13-14.94,22.75,4,6.63,14,9.14,20.46,2.71C525,458.1,524,435,524,435" style="fill:#b4e048;stroke:#9dad6f;stroke-miterlimit:10;stroke-width:0.5px"/></g><path id="W" d="M229.91,281.58c-6.51.33-13.84.68-19.65.68-2.86,0-6.2-.11-9.77-.22h0L181,281.77l7.66,21.86-.06.12,72.65,199,28.6-43.5Z" style="fill:#b4e048;stroke:#9dad6f;stroke-miterlimit:10"/><path d="M456.36,264.47c-5.2-8.32-14.45-15.28-33.42-14.09a26.88,26.88,0,0,0-23,26.17c0,12.31,6.45,20.89,16,35,12.62,18.59,26.65,48.82,26.65,48.82,12.77-21.59,18.55-41.44,21-56.39C465.39,293.06,463.88,276.51,456.36,264.47Z" style="fill:#b4e048;stroke:#9dad6f;stroke-miterlimit:10"/><path id="W-2" data-name="W" d="M324.33,282.42c-8.54,0-20.38-.63-29-1.17,0,0,82.26,227.74,82.67,228.71l25.62-51.51L344.17,281.73Z" style="fill:#b4e048;stroke:#9dad6f;stroke-miterlimit:10"/></g></svg>