<svg xmlns="http://www.w3.org/2000/svg" viewBox="0 0 1024 768"><title>wcbdx_2019_blanc_sans_txt</title><g id="Logo_final_-_Blanc_-_Sans_texte" data-name="Logo final - Blanc - Sans texte"><path id="W" d="M575.22,438.7m135.2-191M559.06,150.91m-181-15c-8.65.44-18.4.91-26.12.91-3.79,0-8.24-.15-13-.3h0l-25.9-.35,10.19,29-.09.16,96.56,264.56,38-57.82Z" style="fill:#fff"/><path id="W-2" data-name="W" d="M575.22,438.7m135.2-191M511.55,265.45l62.22,170.47c.41,1,.92,1.86,1.27,2.87l34-68.36-78.9-234.54-.95.14c-8.58.43-17.74.77-25.38.77-11.33,0-27.05-.84-38.49-1.55l-1.2.64,6.32,16.94L502,239.24Z" style="fill:#fff"/><path d="M679,113.15c-6.91-11.06-19.21-20.3-44.43-18.72C616.41,97.22,604,112.7,604,129.21c0,16.36,8.58,27.77,21.32,46.55,16.77,24.72,35.42,64.9,35.42,64.9,17-28.7,24.65-55.09,27.88-75C691,151.15,689,129.15,679,113.15Z" style="fill:#fff"/></g></svg>